REM DIRINDEX 1\2\5,1\2\6,1\2\7,1\2\8,1\3\9,1\3\10,1\3\11,1\4\12,1\4\13,1\4\14,1\4\15,1\4\16
REM DIRNAME folder01,folder02,folder03,folder04,folder05,folder06,folder07,folder08,folder09,folder10,folder11,folder12,folder13,folder14,folder15,folder16
TITLE ""
FILE "1200_2_sec03_0783_0800.mp3" MP3
  TRACK 01 AUDIO
    TITLE "0:"
    INDEX 01 00:00:00
  TRACK 02 AUDIO
    TITLE "10:cjc034_01610"
    INDEX 01 00:00:15
  TRACK 03 AUDIO
    TITLE "0:"
    INDEX 01 00:01:44
  TRACK 04 AUDIO
    TITLE "9:cjc034_01611"
    INDEX 01 00:01:46
  TRACK 05 AUDIO
    TITLE "0:"
    INDEX 01 00:03:02
  TRACK 06 AUDIO
    TITLE "10:cjc034_01612"
    INDEX 01 00:03:66
  TRACK 07 AUDIO
    TITLE "0:"
    INDEX 01 00:04:72
  TRACK 08 AUDIO
    TITLE "9:cjc034_01613"
    INDEX 01 00:05:03
  TRACK 09 AUDIO
    TITLE "0:"
    INDEX 01 00:06:33
  TRACK 10 AUDIO
    TITLE "10:cjc034_01614"
    INDEX 01 00:07:17
  TRACK 11 AUDIO
    TITLE "0:"
    INDEX 01 00:08:21
  TRACK 12 AUDIO
    TITLE "9:cjc034_01615"
    INDEX 01 00:08:28
  TRACK 13 AUDIO
    TITLE "0:"
    INDEX 01 00:09:45
  TRACK 14 AUDIO
    TITLE "10:cjc034_01616"
    INDEX 01 00:10:27
  TRACK 15 AUDIO
    TITLE "0:"
    INDEX 01 00:11:54
  TRACK 16 AUDIO
    TITLE "9:cjc034_01617"
    INDEX 01 00:11:58
  TRACK 17 AUDIO
    TITLE "0:"
    INDEX 01 00:13:12
  TRACK 18 AUDIO
    TITLE "10:cjc034_01618"
    INDEX 01 00:13:73
  TRACK 19 AUDIO
    TITLE "0:"
    INDEX 01 00:15:13
  TRACK 20 AUDIO
    TITLE "9:cjc034_01619"
    INDEX 01 00:15:17
  TRACK 21 AUDIO
    TITLE "0:"
    INDEX 01 00:16:24
  TRACK 22 AUDIO
    TITLE "10:cjc034_01620"
    INDEX 01 00:17:12
  TRACK 23 AUDIO
    TITLE "0:"
    INDEX 01 00:18:17
  TRACK 24 AUDIO
    TITLE "9:cjc034_01621"
    INDEX 01 00:18:39
  TRACK 25 AUDIO
    TITLE "0:"
    INDEX 01 00:19:56
  TRACK 26 AUDIO
    TITLE "10:cjc034_01622"
    INDEX 01 00:20:57
  TRACK 27 AUDIO
    TITLE "0:"
    INDEX 01 00:21:53
  TRACK 28 AUDIO
    TITLE "9:cjc034_01623"
    INDEX 01 00:21:68
  TRACK 29 AUDIO
    TITLE "0:"
    INDEX 01 00:22:68
  TRACK 30 AUDIO
    TITLE "10:cjc034_01624"
    INDEX 01 00:23:53
  TRACK 31 AUDIO
    TITLE "0:"
    INDEX 01 00:24:51
  TRACK 32 AUDIO
    TITLE "9:cjc034_01625"
    INDEX 01 00:24:57
  TRACK 33 AUDIO
    TITLE "0:"
    INDEX 01 00:25:74
  TRACK 34 AUDIO
    TITLE "11:cjc034_01626"
    INDEX 01 00:27:53
  TRACK 35 AUDIO
    TITLE "0:"
    INDEX 01 00:33:42
  TRACK 36 AUDIO
    TITLE "10:cjc034_01627"
    INDEX 01 00:34:43
  TRACK 37 AUDIO
    TITLE "0:"
    INDEX 01 00:35:53
  TRACK 38 AUDIO
    TITLE "9:cjc034_01628"
    INDEX 01 00:35:59
  TRACK 39 AUDIO
    TITLE "0:"
    INDEX 01 00:36:72
  TRACK 40 AUDIO
    TITLE "10:cjc034_01629"
    INDEX 01 00:39:51
  TRACK 41 AUDIO
    TITLE "0:"
    INDEX 01 00:40:58
  TRACK 42 AUDIO
    TITLE "9:cjc034_01630"
    INDEX 01 00:40:64
  TRACK 43 AUDIO
    TITLE "0:"
    INDEX 01 00:41:67
  TRACK 44 AUDIO
    TITLE "10:cjc034_01631"
    INDEX 01 00:44:56
  TRACK 45 AUDIO
    TITLE "0:"
    INDEX 01 00:47:30
  TRACK 46 AUDIO
    TITLE "9:cjc034_01632"
    INDEX 01 00:47:32
  TRACK 47 AUDIO
    TITLE "0:"
    INDEX 01 00:48:38
  TRACK 48 AUDIO
    TITLE "10:cjc034_01633"
    INDEX 01 00:49:23
  TRACK 49 AUDIO
    TITLE "0:"
    INDEX 01 00:50:31
  TRACK 50 AUDIO
    TITLE "9:cjc034_01634"
    INDEX 01 00:50:39
  TRACK 51 AUDIO
    TITLE "0:"
    INDEX 01 00:51:52
  TRACK 52 AUDIO
    TITLE "10:cjc034_01635"
    INDEX 01 00:52:41
  TRACK 53 AUDIO
    TITLE "0:"
    INDEX 01 00:53:47
  TRACK 54 AUDIO
    TITLE "9:cjc034_01636"
    INDEX 01 00:53:57
  TRACK 55 AUDIO
    TITLE "0:"
    INDEX 01 00:55:03
  TRACK 56 AUDIO
    TITLE "10:cjc034_01637"
    INDEX 01 00:55:61
  TRACK 57 AUDIO
    TITLE "0:"
    INDEX 01 00:57:03
  TRACK 58 AUDIO
    TITLE "9:cjc034_01638"
    INDEX 01 00:57:13
  TRACK 59 AUDIO
    TITLE "0:"
    INDEX 01 00:58:50
  TRACK 60 AUDIO
    TITLE "10:cjc034_01639"
    INDEX 01 00:59:36
  TRACK 61 AUDIO
    TITLE "0:"
    INDEX 01 01:01:56
  TRACK 62 AUDIO
    TITLE "9:cjc034_01640"
    INDEX 01 01:01:64
  TRACK 63 AUDIO
    TITLE "0:"
    INDEX 01 01:02:71
  TRACK 64 AUDIO
    TITLE "10:cjc034_01641"
    INDEX 01 01:03:53
  TRACK 65 AUDIO
    TITLE "0:"
    INDEX 01 01:04:66
  TRACK 66 AUDIO
    TITLE "9:cjc034_01642"
    INDEX 01 01:04:72
  TRACK 67 AUDIO
    TITLE "0:"
    INDEX 01 01:06:20
  TRACK 68 AUDIO
    TITLE "10:cjc034_01643"
    INDEX 01 01:07:06
  TRACK 69 AUDIO
    TITLE "0:"
    INDEX 01 01:08:11
  TRACK 70 AUDIO
    TITLE "9:cjc034_01644"
    INDEX 01 01:08:13
  TRACK 71 AUDIO
    TITLE "0:"
    INDEX 01 01:09:46
  TRACK 72 AUDIO
    TITLE "10:cjc034_01645"
    INDEX 01 01:10:31
  TRACK 73 AUDIO
    TITLE "0:"
    INDEX 01 01:11:31
  TRACK 74 AUDIO
    TITLE "9:cjc034_01646"
    INDEX 01 01:11:37
  TRACK 75 AUDIO
    TITLE "0:"
    INDEX 01 01:12:38
